HIERARCHY
ROOT root
{
	OFFSET	0	13.1	24.9
	CHANNELS 6  Xposition Yposition Zposition Xrotation Yrotation Zrotation
	JOINT spine_1
	{
		OFFSET	0	9.99999	0
		CHANNELS 3  Xrotation Yrotation Zrotation
		JOINT spine_2
		{
			OFFSET	0	112	-10
			CHANNELS 3  Xrotation Yrotation Zrotation
			JOINT spine_3
			{
				OFFSET	0	206.5	19.3
				CHANNELS 3  Xrotation Yrotation Zrotation
				JOINT spine_4
				{
					OFFSET	0	110.4	14.6
					CHANNELS 3  Xrotation Yrotation Zrotation
					JOINT neck_1
					{
						OFFSET	0	71.8	-50.3
						CHANNELS 3  Xrotation Yrotation Zrotation
						JOINT neck_2
						{
							OFFSET	0	86.2	-25.8
							CHANNELS 3  Xrotation Yrotation Zrotation
							JOINT head_ee
							{
								OFFSET	0	179.8	-8.7
								CHANNELS 3  Xrotation Yrotation Zrotation
								End Site
								{
									OFFSET	1	0	0
								}
							}
						}
					}
					JOINT left_clavicle
					{
						OFFSET	-43.2	22.4	-70.8
						CHANNELS 3  Xrotation Yrotation Zrotation
						JOINT left_shoulder
						{
							OFFSET	-93.9	-5.79999	48.7
							CHANNELS 3  Xrotation Yrotation Zrotation
							JOINT left_elbow
							{
								OFFSET	-291.4	-30.8	15.2
								CHANNELS 3  Xrotation Yrotation Zrotation
								JOINT left_lowarm_twist
								{
									OFFSET	-110.7	-3.89999	13.6
									CHANNELS 3  Xrotation Yrotation Zrotation
									JOINT left_hand
									{
										OFFSET	-110.7	-3.89999	13.6
										CHANNELS 3  Xrotation Yrotation Zrotation
										JOINT left_ee
										{
											OFFSET	-80.8	-5.10001	12.1
											CHANNELS 3  Xrotation Yrotation Zrotation
											End Site
											{
												OFFSET	1	0	0
											}
										}
									}
								}
							}
						}
					}
					JOINT right_clavicle
					{
						OFFSET	43.2	22.4	-70.8
						CHANNELS 3  Xrotation Yrotation Zrotation
						JOINT right_shoulder
						{
							OFFSET	93.9	-5.79999	48.7
							CHANNELS 3  Xrotation Yrotation Zrotation
							JOINT right_elbow
							{
								OFFSET	291.4	-30.8	15.2
								CHANNELS 3  Xrotation Yrotation Zrotation
								JOINT right_lowarm_twist
								{
									OFFSET	110.7	-3.89999	13.6
									CHANNELS 3  Xrotation Yrotation Zrotation
									JOINT right_hand
									{
										OFFSET	110.7	-3.89999	13.6
										CHANNELS 3  Xrotation Yrotation Zrotation
										JOINT right_ee
										{
											OFFSET	80.8	-5.10001	12.1
											CHANNELS 3  Xrotation Yrotation Zrotation
											End Site
											{
												OFFSET	1	0	0
											}
										}
									}
								}
							}
						}
					}
				}
			}
		}
	}
	JOINT left_hip
	{
		OFFSET	-82.8	-127.5	0.300001
		CHANNELS 3  Xrotation Yrotation Zrotation
		JOINT left_knee
		{
			OFFSET	-28.2	-396.7	2.2
			CHANNELS 3  Xrotation Yrotation Zrotation
			JOINT left_ankle
			{
				OFFSET	-11.7	-411.3	35.4
				CHANNELS 3  Xrotation Yrotation Zrotation
				JOINT left_toes
				{
					OFFSET	0	-60	-88.6
					CHANNELS 3  Xrotation Yrotation Zrotation
					JOINT left_foot_ee
					{
						OFFSET	-22.5	-16.5	-42.2
						CHANNELS 3  Xrotation Yrotation Zrotation
						End Site
						{
							OFFSET	1	0	0
						}
					}
				}
			}
		}
	}
	JOINT right_hip
	{
		OFFSET	82.8	-127.5	0.300001
		CHANNELS 3  Xrotation Yrotation Zrotation
		JOINT right_knee
		{
			OFFSET	28.2	-396.7	2.2
			CHANNELS 3  Xrotation Yrotation Zrotation
			JOINT right_ankle
			{
				OFFSET	11.7	-411.3	35.4
				CHANNELS 3  Xrotation Yrotation Zrotation
				JOINT right_toes
				{
					OFFSET	0	-60	-88.6
					CHANNELS 3  Xrotation Yrotation Zrotation
					JOINT right_foot_ee
					{
						OFFSET	22.5	-16.5	-42.2
						CHANNELS 3  Xrotation Yrotation Zrotation
						End Site
						{
							OFFSET	1	0	0
						}
					}
				}
			}
		}
	}
}
MOTION
Frames: 5
Frame Time: 0.02
391.555 721.904 -1204.45 -172.366712111 -45.9772003892 -172.97509364 2.90868 -0.306543 -2.40816 2.91189 -0.152731 -2.42277 2.91744 0.237327 -2.41596 2.90932 -0.147091 -2.42312 -17.3567 -9.96201 -2.94018 -17.6854 -17.5234 -6.51713 -0.0 0.0 -0.0 11.9791 -17.3541 24.0484 -23.402 -3.8071 70.3302 0.385769 -10.8189 0.0365302 -29.8938 -1.94597 3.2445 3.51051 -28.3708 10.4157 -0.0 0.0 -0.0 5.66556 -1.14699 -10.9845 -10.5729 -11.3846 -55.6729 1.01797 26.7599 -0.242144 62.6197 2.01263 7.34422 3.51908 -5.48237 -26.3524 0.0 0.0 0.0 25.5769 -43.8919 13.2997 -25.841 0.180768 3.92793 41.8409 25.1411 -5.34602 38.6856 -0.0 -0.0 -0.0 0.0 -0.0 0.65491 -29.3759 -1.49552 3.54273 0.162018 0.519353 40.3807 -0.911882 4.90246 40.1056 -0.0 -0.0 0.0 0.0 0.0 
391.828400574 709.448 -1206.58612175 -173.112788472 -48.4915637596 -173.247696413 2.63758 0.148446 -2.50977 2.64103 0.307798 -2.49525 2.6267 0.716178 -2.41005 2.61874 0.326693 -2.49285 -15.8671 -7.97305 -3.20971 -16.0106 -13.4257 -5.79684 -0.0 0.0 -0.0 11.7788 -18.6934 23.514 -23.8036 -5.48604 69.5385 0.374019 -10.4968 0.0343572 -25.0279 -1.51711 2.7918 2.63742 -19.1298 9.42175 -0.0 0.0 -0.0 5.4094 8.87031 -10.1049 -8.05919 -5.77658 -54.9313 0.464191 12.9501 -0.0526834 59.6079 1.73915 7.07164 3.06383 -9.41615 -24.4104 0.0 0.0 0.0 23.3655 -47.7313 10.9824 -24.417 0.217118 3.71243 41.9544 22.273 -5.26584 40.1711 -0.0 -0.0 -0.0 0.0 -0.0 1.1632 -26.9291 -1.59949 -1.97373 -0.0762207 -0.293296 41.7294 -16.8579 5.1171 36.8132 -0.0 -0.0 0.0 0.0 0.0 
391.842613024 709.448 -1206.58425461 -173.163932442 -48.1129188891 -173.31619265 2.63758 0.148446 -2.50977 2.64103 0.307798 -2.49525 2.6267 0.716178 -2.41005 2.61874 0.326693 -2.49285 -15.8671 -7.97305 -3.20971 -16.0106 -13.4257 -5.79684 -0.0 0.0 -0.0 11.7788 -18.6934 23.514 -23.8036 -5.48604 69.5385 0.374019 -10.4968 0.0343572 -25.0279 -1.51711 2.7918 2.63742 -19.1298 9.42175 -0.0 0.0 -0.0 5.4094 8.87031 -10.1049 -8.05919 -5.77658 -54.9313 0.464191 12.9501 -0.0526834 59.6079 1.73915 7.07164 3.06383 -9.41615 -24.4104 0.0 0.0 0.0 23.3655 -47.7313 10.9824 -24.417 0.217118 3.71243 41.9544 22.273 -5.26584 40.1711 -0.0 -0.0 -0.0 0.0 -0.0 1.1632 -26.9291 -1.59949 -1.97373 -0.0762207 -0.293296 41.7294 -16.8579 5.1171 36.8132 -0.0 -0.0 0.0 0.0 0.0 
391.888335348 709.448 -1206.5775929 -173.321803206 -46.8921322024 -173.530298439 2.63758 0.148446 -2.50977 2.64103 0.307798 -2.49525 2.6267 0.716178 -2.41005 2.61874 0.326693 -2.49285 -15.8671 -7.97305 -3.20971 -16.0106 -13.4257 -5.79684 -0.0 0.0 -0.0 11.7788 -18.6934 23.514 -23.8036 -5.48604 69.5385 0.374019 -10.4968 0.0343572 -25.0279 -1.51711 2.7918 2.63742 -19.1298 9.42175 -0.0 0.0 -0.0 5.4094 8.87031 -10.1049 -8.05919 -5.77658 -54.9313 0.464191 12.9501 -0.0526834 59.6079 1.73915 7.07164 3.06383 -9.41615 -24.4104 0.0 0.0 0.0 23.3655 -47.7313 10.9824 -24.417 0.217118 3.71243 41.9544 22.273 -5.26584 40.1711 -0.0 -0.0 -0.0 0.0 -0.0 1.1632 -26.9291 -1.59949 -1.97373 -0.0762207 -0.293296 41.7294 -16.8579 5.1171 36.8132 -0.0 -0.0 0.0 0.0 0.0 
391.913626317 709.448 -1206.5734762 -173.40498623 -46.2149663613 -173.644870842 2.63758 0.148446 -2.50977 2.64103 0.307798 -2.49525 2.6267 0.716178 -2.41005 2.61874 0.326693 -2.49285 -15.8671 -7.97305 -3.20971 -16.0106 -13.4257 -5.79684 -0.0 0.0 -0.0 11.7788 -18.6934 23.514 -23.8036 -5.48604 69.5385 0.374019 -10.4968 0.0343572 -25.0279 -1.51711 2.7918 2.63742 -19.1298 9.42175 -0.0 0.0 -0.0 5.4094 8.87031 -10.1049 -8.05919 -5.77658 -54.9313 0.464191 12.9501 -0.0526834 59.6079 1.73915 7.07164 3.06383 -9.41615 -24.4104 0.0 0.0 0.0 23.3655 -47.7313 10.9824 -24.417 0.217118 3.71243 41.9544 22.273 -5.26584 40.1711 -0.0 -0.0 -0.0 0.0 -0.0 1.1632 -26.9291 -1.59949 -1.97373 -0.0762207 -0.293296 41.7294 -16.8579 5.1171 36.8132 -0.0 -0.0 0.0 0.0 0.0 
